HIERARCHY
ROOT Hips
{
	OFFSET 0.000000 0.000000 0.000000 
	CHANNELS 6 Xposition Yposition Zposition Zrotation Yrotation Xrotation
	JOINT LHipJoint
	{
		OFFSET 0.000000 0.000000 0.000000 
		CHANNELS 3 Zrotation Yrotation Xrotation
		JOINT LeftHip
		{
			OFFSET 1.656740 -1.802820 0.624770 
			CHANNELS 3 Zrotation Yrotation Xrotation
			JOINT LeftKnee
			{
				OFFSET 2.597200 -7.135760 0.000000 
				CHANNELS 3 Zrotation Yrotation Xrotation
				JOINT LeftAnkle
				{
					OFFSET 2.492360 -6.847700 0.000000 
					CHANNELS 3 Zrotation Yrotation Xrotation
					JOINT LeftToe
					{
						OFFSET 0.197040 -0.541360 2.145810 
						CHANNELS 3 Zrotation Yrotation Xrotation
						End Site
						{
							OFFSET 0.000000 -0.000000 1.112490 
						}
					}
				}
			}
		}
	}
	JOINT RHipJoint
	{
		OFFSET 0.000000 0.000000 0.000000 
		CHANNELS 3 Zrotation Yrotation Xrotation
		JOINT RightHip
		{
			OFFSET -1.610700 -1.802820 0.624760 
			CHANNELS 3 Zrotation Yrotation Xrotation
			JOINT RightKnee
			{
				OFFSET -2.595020 -7.129770 0.000000 
				CHANNELS 3 Zrotation Yrotation Xrotation
				JOINT RightAnkle
				{
					OFFSET -2.467800 -6.780240 0.000000 
					CHANNELS 3 Zrotation Yrotation Xrotation
					JOINT RightToe
					{
						OFFSET -0.230240 -0.632580 2.133680 
						CHANNELS 3 Zrotation Yrotation Xrotation
						End Site
						{
							OFFSET -0.000000 -0.000000 1.115690 
						}
					}
				}
			}
		}
	}
	JOINT lowerback
	{
		OFFSET 0.000000 0.000000 0.000000 
		CHANNELS 3 Zrotation Yrotation Xrotation
		JOINT Chest
		{
			OFFSET 0.019610 2.054500 -0.141120 
			CHANNELS 3 Zrotation Yrotation Xrotation
			JOINT Chest2
			{
				OFFSET 0.010210 2.064360 -0.059210 
				CHANNELS 3 Zrotation Yrotation Xrotation
				JOINT lowerneck
				{
					OFFSET 0.000000 0.000000 0.000000 
					CHANNELS 3 Zrotation Yrotation Xrotation
					JOINT Neck
					{
						OFFSET 0.007130 1.567110 0.149680 
						CHANNELS 3 Zrotation Yrotation Xrotation
						JOINT Head
						{
							OFFSET 0.034290 1.560410 -0.100060 
							CHANNELS 3 Zrotation Yrotation Xrotation
							End Site
							{
								OFFSET 0.013050 1.625600 -0.052650 
							}
						}
					}
				}
				JOINT LeftCollar
				{
					OFFSET 0.000000 0.000000 0.000000 
					CHANNELS 3 Zrotation Yrotation Xrotation
					JOINT LeftShoulder
					{
						OFFSET 3.542050 0.904360 -0.173640 
						CHANNELS 3 Zrotation Xrotation Yrotation
						JOINT LeftElbow
						{
							OFFSET 0.000000 -4.865130 -0.000000 
							CHANNELS 3 Zrotation Xrotation Yrotation
							JOINT LeftWrist
							{
								OFFSET 0.000000 -3.355540 0.000000 
								CHANNELS 3 Zrotation Xrotation Yrotation
								JOINT lhand
								{
									OFFSET 0.000000 0.000000 0.000000 
									CHANNELS 3 Zrotation Xrotation Yrotation
									JOINT LFingers
									{
										OFFSET 0.000000 -0.661170 0.000000 
										CHANNELS 3 Zrotation Xrotation Yrotation
										End Site
										{
											OFFSET 0.000000 -0.533060 0.000000 
										}
									}
								}
								JOINT LThumb
								{
									OFFSET 0.000000 0.000000 0.000000 
									CHANNELS 3 Zrotation Xrotation Yrotation
									End Site
									{
										OFFSET 0.000000 -0.541200 0.541200 
									}
								}
							}
						}
					}
				}
				JOINT RightCollar
				{
					OFFSET 0.000000 0.000000 0.000000 
					CHANNELS 3 Zrotation Yrotation Xrotation
					JOINT RightShoulder
					{
						OFFSET -3.498020 0.759940 -0.326160 
						CHANNELS 3 Zrotation Xrotation Yrotation
						JOINT RightElbow
						{
							OFFSET 0.000000 -5.026490 0.000000 
							CHANNELS 3 Zrotation Xrotation Yrotation
							JOINT RightWrist
							{
								OFFSET 0.000000 -3.364310 0.000000 
								CHANNELS 3 Zrotation Xrotation Yrotation
								JOINT rhand
								{
									OFFSET 0.000000 0.000000 0.000000 
									CHANNELS 3 Zrotation Xrotation Yrotation
									JOINT RFingers
									{
										OFFSET 0.000000 -0.730410 0.000000 
										CHANNELS 3 Zrotation Xrotation Yrotation
										End Site
										{
											OFFSET 0.000000 -0.588870 0.000000 
										}
									}
								}
								JOINT RThumb
								{
									OFFSET 0.000000 0.000000 0.000000 
									CHANNELS 3 Zrotation Xrotation Yrotation
									End Site
									{
										OFFSET 0.000000 -0.597860 0.597860 
									}
								}
							}
						}
					}
				}
			}
		}
	}
}
MOTION
Frames: 12
Frame Time: 0.139204
0.000000 0.000000 0.000000 0.000000 0.000000 0.000000 0.000000 0.000000 0.000000 0.000000 0.000000 0.000000 0.000000 0.000000 0.000000 0.000000 0.000000 0.000000 0.000000 0.000000 0.000000 0.000000 0.000000 0.000000 0.000000 0.000000 0.000000 0.000000 0.000000 0.000000 0.000000 0.000000 0.000000 0.000000 0.000000 0.000000 0.000000 0.000000 0.000000 0.000000 0.000000 0.000000 0.000000 0.000000 0.000000 0.000000 0.000000 0.000000 0.000000 0.000000 0.000000 0.000000 0.000000 0.000000 0.000000 0.000000 0.000000 0.000000 0.000000 0.000000 0.000000 0.000000 0.000000 0.000000 0.000000 0.000000 0.000000 0.000000 0.000000 0.000000 0.000000 0.000000 0.000000 0.000000 0.000000 0.000000 0.000000 0.000000 0.000000 0.000000 0.000000 0.000000 0.000000 0.000000 0.000000 0.000000 0.000000 0.000000 0.000000 0.000000 0.000000 0.000000 0.000000 0.000000 0.000000 0.000000 
0.000000 0.000000 0.000000 -2.540900 -10.258100 -2.285900 0.000000 0.000000 0.000000 -20.117300 -9.932300 -26.243700 2.353600 9.566700 27.584600 -0.100500 10.382800 -13.075100 0.324100 -3.659100 -10.119500 0.000000 0.000000 0.000000 27.513700 -4.794000 19.510599 -0.602000 -4.966800 13.813900 -0.504200 6.602900 -12.772600 -0.391100 4.015800 -11.121200 5.111100 1.733500 5.872000 1.520800 2.542000 3.564300 -1.426300 1.332000 0.544200 0.757100 4.286700 -12.838900 -4.303500 5.736200 -0.501300 -1.179200 2.715500 2.216300 -0.000000 -0.000000 0.000000 -7.382900 10.690100 11.475100 10.170700 -17.006201 1.524500 23.326300 -2.637100 -20.934200 0.000000 0.000000 0.000000 -7.125000 0.000000 0.000000 -5.455700 52.515202 1.011500 -0.000000 -0.000000 0.000000 -9.743100 -20.454000 39.877300 -25.044901 -36.249802 -8.316400 -27.020901 -24.611500 -16.699499 0.000000 0.000000 0.000000 7.125000 0.000000 -0.000000 0.536300 11.368600 0.420100 
0.000000 0.000000 0.000000 1.295900 -9.671800 -3.274100 0.000000 0.000000 0.000000 -26.771400 -7.384500 -19.624901 3.497400 11.459800 33.846699 0.398900 6.216900 -15.819000 0.206900 2.928500 8.079700 0.000000 0.000000 0.000000 21.836201 3.041000 4.074000 -8.498100 -16.473700 54.337601 -0.698800 -3.851800 14.957900 -3.217200 11.038600 -32.410198 0.857200 1.425400 6.000900 -0.027000 1.936500 2.845600 -0.628100 0.973300 -0.405500 -0.675100 4.068600 -11.815100 -2.041300 5.473800 -4.146400 -0.298600 2.704000 0.701700 0.000000 -0.000000 0.000000 -4.594400 4.219300 2.430900 10.759500 -17.918699 1.701200 22.666500 -4.232000 -19.726200 0.000000 0.000000 0.000000 -7.125000 0.000000 0.000000 -5.764200 51.125900 0.872400 0.000000 -0.000000 0.000000 -4.088500 -13.592500 36.821999 -15.066900 -24.239201 -3.253400 -24.155199 -17.823000 -17.735399 0.000000 0.000000 0.000000 7.125000 0.000000 -0.000000 2.518700 10.678200 2.010400 
0.000000 0.000000 0.000000 2.174100 -4.065000 -3.909300 0.000000 0.000000 0.000000 -30.561501 -5.643000 -6.309600 2.468100 9.779700 28.266300 0.874400 3.729900 -19.393000 0.012400 0.719500 1.977400 0.000000 0.000000 0.000000 18.777201 10.972800 -16.008101 -13.589900 -18.984900 70.948097 0.729200 -15.731000 -11.226800 -0.314200 3.603600 -9.964200 -0.858000 -0.256500 6.126000 0.446800 -0.386600 3.308500 0.963300 -0.208900 -0.020900 -0.826400 3.892100 -12.373700 -3.025500 5.302900 -3.041400 -0.560400 2.581900 1.181100 0.000000 -0.000000 0.000000 -1.817000 -2.892600 -22.581900 20.667000 -31.437500 5.875300 22.890800 -14.911900 -22.237900 0.000000 0.000000 0.000000 -7.125000 0.000000 0.000000 -6.319800 53.801998 1.371900 0.000000 -0.000000 0.000000 -3.365400 -2.534000 28.553301 -11.910700 -19.670500 -2.072100 -22.213400 -15.016000 -15.780100 0.000000 0.000000 0.000000 7.125000 0.000000 -0.000000 3.664200 13.030500 2.749400 
0.000000 0.000000 0.000000 3.028500 1.741800 -2.896600 0.000000 0.000000 0.000000 -31.631100 -2.488700 6.432500 1.213900 6.989000 19.682699 1.028300 0.084700 -19.205000 0.004400 -0.429500 -1.180100 0.000000 0.000000 0.000000 13.109400 20.805700 -22.913700 -4.606500 -12.926500 39.094002 -0.217900 -9.009900 -16.204700 -0.656600 5.182800 -14.430600 -3.337800 -1.577200 5.442800 0.825900 -2.245800 3.251800 2.828700 -1.179600 0.462400 -1.156200 3.428100 -12.876300 -1.773900 4.731900 -2.715400 -0.128400 2.322800 1.324500 -0.000000 -0.000000 0.000000 1.783500 -6.231400 -35.751099 38.846001 -47.371101 17.585400 23.145599 -21.052299 -16.835300 0.000000 0.000000 0.000000 -7.125000 0.000000 0.000000 -4.570200 48.141899 0.354900 -0.000000 -0.000000 0.000000 -2.064000 10.069300 22.352900 -11.139800 -18.502199 -1.820000 -20.723301 -14.044800 -16.829000 0.000000 0.000000 0.000000 7.125000 0.000000 -0.000000 4.721200 12.105000 3.638800 
0.000000 0.000000 0.000000 2.647500 4.738800 -2.677000 0.000000 0.000000 0.000000 -29.134199 2.469100 18.820200 0.546600 4.736500 13.158600 0.614100 -0.612100 -14.608000 0.300000 -3.521900 -9.735400 0.000000 0.000000 0.000000 15.540900 15.151200 -24.906300 -1.825100 -8.492000 24.218599 -0.426700 -6.235500 -16.189501 -0.298300 3.512100 -9.707900 -3.552800 -2.404400 5.023900 1.714700 -3.344900 2.871500 3.901600 -1.735200 0.453600 -1.331600 3.178400 -13.165200 -3.375400 4.457800 -2.775300 -0.611000 2.144100 1.394100 0.000000 0.000000 0.000000 1.213700 -4.296900 -37.963299 44.934502 -50.736301 22.188000 25.254200 -19.148399 -14.407000 0.000000 0.000000 0.000000 -7.125000 0.000000 0.000000 -2.114800 45.825298 0.043100 0.000000 0.000000 0.000000 -0.397800 14.918300 7.355100 -7.836000 -13.286600 -0.914100 -19.453600 -2.822900 -15.755100 0.000000 0.000000 0.000000 7.125000 0.000000 -0.000000 5.515800 13.378700 4.109300 
0.000000 0.000000 0.000000 -0.524700 3.302100 -3.907400 0.000000 0.000000 0.000000 -23.219101 2.592100 9.850600 5.971900 14.401000 44.868698 0.205500 4.050000 8.120100 2.630000 -10.070500 -29.205200 0.000000 0.000000 0.000000 23.231501 14.511700 -18.883801 -3.767000 -11.843800 35.181599 -0.398500 -5.803800 -15.464300 -0.005700 -0.485700 1.334600 0.037600 -2.283200 4.284700 2.599200 -3.030500 2.324400 2.768900 -1.532700 0.127600 -0.748800 3.347900 -14.488300 -3.370500 4.663400 -1.362700 -0.664500 2.203900 2.119800 -0.000000 0.000000 0.000000 -2.616500 1.822400 -29.679001 25.107700 -36.313801 8.353600 22.192600 -14.151500 -18.192101 0.000000 0.000000 0.000000 -7.125000 0.000000 0.000000 -5.814600 49.432499 0.637400 -0.000000 0.000000 0.000000 -0.552600 11.799900 2.200100 -7.148000 -12.162600 -0.762500 -19.545099 0.900600 -15.542900 0.000000 0.000000 0.000000 7.125000 0.000000 -0.000000 5.445400 13.590400 4.032000 
0.000000 0.000000 0.000000 -2.267900 -0.432300 -5.011200 0.000000 0.000000 0.000000 -19.240601 -1.748600 -14.764300 13.854900 19.069500 71.761002 -0.742600 15.053100 -5.848900 0.099700 -2.036600 -5.606800 0.000000 0.000000 0.000000 28.448400 8.359500 -6.182800 -2.690700 -10.176600 29.550600 -1.026800 -0.240100 -19.245800 -0.022000 -0.958000 2.633100 2.340100 -0.658300 6.546500 1.941900 -0.716300 2.992700 0.732700 -0.350700 -0.589300 -1.617600 2.366400 -13.514100 -1.079000 3.406400 -1.693800 0.122700 1.668100 1.751600 -0.000000 0.000000 0.000000 -2.736500 2.600300 -8.315500 9.312800 -15.657500 1.283200 24.601999 -1.944200 -18.229200 0.000000 0.000000 0.000000 -7.125000 0.000000 0.000000 -3.467500 49.860199 0.415900 -0.000000 0.000000 0.000000 -1.335700 -0.553400 20.153200 -10.703900 -17.833000 -1.684100 -20.702101 -10.279000 -13.585800 0.000000 0.000000 0.000000 7.125000 0.000000 -0.000000 4.579500 15.525800 3.197000 
0.000000 0.000000 0.000000 -2.587400 -5.735100 -4.619100 0.000000 0.000000 0.000000 -16.440800 -10.477500 -25.238800 6.051600 14.478100 45.188400 0.178900 6.146500 -12.514300 0.505800 -4.559000 -12.654800 0.000000 0.000000 0.000000 28.560801 2.968500 4.927400 -1.654500 -8.106000 23.036501 -1.154600 5.569900 -19.226101 -0.004200 -0.417200 1.146400 4.583700 0.763600 7.553000 0.912700 1.341600 3.187100 -1.739200 0.697600 -0.852000 -0.263300 2.884100 -11.218600 -2.464700 3.917200 -1.423400 -0.549000 1.892000 1.495500 0.000000 0.000000 0.000000 -2.702600 12.636400 -4.798800 10.279900 -17.176201 1.556600 23.194500 -5.788000 -20.271601 0.000000 0.000000 0.000000 -7.125000 0.000000 0.000000 -5.393000 51.792702 0.904300 0.000000 0.000000 0.000000 -6.890900 -12.399300 39.217602 -22.576300 -33.622200 -6.902300 -23.881701 -22.136400 -15.109700 0.000000 0.000000 0.000000 7.125000 0.000000 -0.000000 2.498200 13.540200 1.845700 
0.000000 0.000000 0.000000 -2.899000 -8.805500 -4.378900 0.000000 0.000000 0.000000 -14.608000 -13.779700 -23.215599 1.470400 7.662700 21.694300 0.046000 10.806600 -16.057800 0.926900 -6.133400 -17.172001 0.000000 0.000000 0.000000 25.905399 -2.733900 20.441601 -0.322600 -3.650700 10.096000 -0.536900 6.816800 -13.183000 -0.324700 3.662300 -10.128500 5.089000 1.342800 6.770300 0.931200 2.085100 3.422700 -2.030200 1.093200 -0.107600 2.525100 5.311100 -9.371300 -4.605300 6.859500 -2.158400 -1.606100 3.329300 1.173100 0.000000 0.000000 0.000000 -5.584500 14.850500 3.455000 9.244500 -15.549200 1.264800 22.449499 -2.468000 -20.208500 0.000000 0.000000 0.000000 -7.125000 0.000000 0.000000 -6.120500 51.595100 0.997200 0.000000 0.000000 0.000000 -11.008100 -20.889500 41.958199 -33.383999 -43.623100 -13.686300 -25.633699 -23.844999 -15.751700 0.000000 0.000000 0.000000 7.125000 0.000000 -0.000000 1.371200 12.611100 1.039000 
0.000000 0.000000 0.000000 -0.823700 -6.888600 -4.867900 0.000000 0.000000 0.000000 -21.169600 -7.703700 -21.052500 3.416400 11.340400 33.436600 -0.065500 8.839700 -11.289000 0.080600 -1.831600 -5.040400 0.000000 0.000000 0.000000 23.243200 -0.480100 17.091600 -3.620600 -11.637700 34.462101 -0.043500 -1.309300 3.700400 -1.916600 8.690200 -24.830999 1.837300 1.280000 4.673600 0.263900 1.786800 1.800600 -0.851200 0.897400 -0.721600 3.205200 6.681300 -8.051300 -2.409000 8.689400 2.080000 -0.914000 4.287800 2.308600 0.000000 0.000000 0.000000 -4.254600 10.879500 5.075600 8.108700 -13.729000 0.977800 20.413401 1.823900 -19.637800 0.000000 0.000000 0.000000 -7.125000 0.000000 0.000000 -7.960900 50.654301 1.115300 0.000000 0.000000 0.000000 -7.916800 -12.019400 38.930901 -32.075901 -42.607601 -12.792200 -26.354700 -25.344900 -17.297199 0.000000 0.000000 0.000000 7.125000 0.000000 -0.000000 1.033900 10.818200 0.821600 
0.000000 0.000000 0.000000 2.294700 -4.710400 -5.315600 0.000000 0.000000 0.000000 -28.087799 -3.947500 -8.322900 2.422000 9.694700 27.993601 0.464200 6.403500 -16.794001 0.032600 -1.165400 -3.203900 0.000000 0.000000 0.000000 18.642099 6.751400 -7.967900 -13.075700 -18.809299 69.360497 0.726600 -14.895200 -5.291600 -1.274800 7.155900 -20.177999 -1.279400 0.316600 5.881700 -0.050000 0.342500 1.462900 0.641600 0.174600 -1.798400 3.616600 7.869400 -8.055700 -3.858700 10.405400 4.975200 -1.294400 5.084700 3.475900 -0.000000 -0.000000 0.000000 -1.979500 5.418100 -18.691700 18.664499 -28.999701 4.867100 23.253700 -14.196300 -20.435400 0.000000 0.000000 0.000000 -7.125000 0.000000 0.000000 -5.381000 51.976101 0.926500 -0.000000 -0.000000 0.000000 -5.075300 -3.819400 35.659599 -18.628901 -28.955000 -4.849900 -22.878000 -19.242001 -16.208200 0.000000 0.000000 0.000000 7.125000 0.000000 -0.000000 3.247100 12.490400 2.472100 
